<svg width="80" height="82" viewBox="0 0 80 82" fill="none" xmlns="http://www.w3.org/2000/svg">
<path d="M35 71.5555C37.7614 71.5555 40 69.2672 40 66.4444C40 63.6216 37.7614 61.3333 35 61.3333C32.2386 61.3333 30 63.6216 30 66.4444C30 69.2672 32.2386 71.5555 35 71.5555Z" fill="black"/>
<path d="M58.3333 71.5555C61.0948 71.5555 63.3333 69.2672 63.3333 66.4444C63.3333 63.6216 61.0948 61.3333 58.3333 61.3333C55.5719 61.3333 53.3333 63.6216 53.3333 66.4444C53.3333 69.2672 55.5719 71.5555 58.3333 71.5555Z" fill="black"/>
<path d="M43.3333 44.2962H50V34.108H59.9667V27.2932H50V17.1392H43.3333V27.2932H33.3667V34.108H43.3333V44.2962Z" fill="black"/>
<path d="M33.3333 57.9259H60C60.6715 57.9239 61.3267 57.7146 61.8798 57.3255C62.433 56.9363 62.8583 56.3855 63.1 55.7452L72.5333 30.6666H65.4L57.7 51.1111H35.5667L20.6 14.4133C20.0925 13.1698 19.2359 12.108 18.1383 11.362C17.0407 10.616 15.7514 10.2194 14.4333 10.2222H6.66666V17.037H14.4333L30.2667 55.8133C30.5167 56.4356 30.9414 56.9682 31.4871 57.3442C32.0329 57.7201 32.6752 57.9225 33.3333 57.9259Z" fill="black"/>
</svg>
